<?xml version="1.0" standalone="no"?>
<!DOCTYPE svg PUBLIC "-//W3C//DTD SVG 20010904//EN"
 "http://www.w3.org/TR/2001/REC-SVG-20010904/DTD/svg10.dtd">
<svg version="1.0" xmlns="http://www.w3.org/2000/svg"
 width="998.000000pt" height="862.000000pt" viewBox="0 0 998.000000 862.000000"
 preserveAspectRatio="xMidYMid meet">

<g transform="translate(0.000000,862.000000) scale(0.100000,-0.100000)"
fill="#000000" stroke="none">
<path d="M6900 8440 c0 -5 -20 -10 -45 -10 -25 0 -45 -4 -45 -10 0 -5 -11 -10
-25 -10 -14 0 -25 -4 -25 -9 0 -5 -10 -11 -22 -14 -38 -8 -92 -31 -106 -44 -7
-7 -17 -13 -22 -13 -4 0 -26 -15 -48 -32 -22 -18 -49 -40 -61 -48 -11 -8 -21
-18 -21 -23 0 -10 -66 -74 -99 -97 -22 -15 -91 -141 -91 -166 0 -8 -7 -14 -15
-14 -9 0 -15 -9 -15 -25 0 -14 -4 -25 -10 -25 -5 0 -10 -11 -10 -25 0 -14 -4
-25 -10 -25 -5 0 -10 -16 -10 -35 0 -19 -4 -35 -10 -35 -6 0 -10 -27 -10 -60
0 -33 -4 -60 -10 -60 -6 0 -10 -38 -10 -95 0 -57 4 -95 10 -95 6 0 10 -25 10
-55 0 -30 5 -55 10 -55 6 0 10 -16 10 -35 0 -19 5 -35 10 -35 6 0 10 -13 10
-30 0 -16 5 -30 10 -30 6 0 10 -9 10 -20 0 -11 4 -20 9 -20 5 0 28 -39 52 -87
40 -82 70 -118 164 -200 49 -43 133 -103 143 -103 7 0 12 -7 12 -15 0 -8 9
-15 20 -15 11 0 20 -4 20 -10 0 -5 14 -10 30 -10 17 0 30 -4 30 -10 0 -5 11
-10 24 -10 13 0 26 -3 28 -7 2 -5 42 -16 89 -25 107 -22 278 -23 374 -3 38 8
82 15 97 15 16 0 28 5 28 10 0 6 9 10 20 10 11 0 20 5 20 10 0 6 9 10 20 10
11 0 20 5 20 10 0 6 9 10 20 10 12 0 31 9 43 21 12 11 42 33 67 47 25 15 64
45 87 67 23 22 55 51 71 65 17 14 37 43 46 63 8 21 22 40 31 43 8 3 15 15 15
25 0 10 5 19 10 19 6 0 10 9 10 20 0 11 5 20 10 20 6 0 10 7 10 15 0 8 5 15
10 15 6 0 10 9 10 20 0 11 5 20 10 20 6 0 10 16 10 35 0 19 5 35 10 35 6 0 10
16 10 35 0 19 4 35 9 35 13 0 34 173 28 236 -12 120 -20 164 -28 164 -5 0 -9
16 -9 35 0 19 -4 35 -10 35 -5 0 -10 14 -10 30 0 17 -4 30 -10 30 -5 0 -10 11
-10 25 0 14 -4 25 -10 25 -5 0 -10 9 -10 20 0 11 -4 20 -10 20 -5 0 -10 7 -10
15 0 8 -4 15 -10 15 -5 0 -10 7 -10 15 0 8 -3 15 -8 15 -4 0 -16 17 -27 37
-20 37 -77 103 -90 103 -9 0 -35 27 -35 37 0 5 -10 15 -21 23 -12 8 -27 20
-33 26 -7 6 -26 19 -43 28 -18 9 -38 24 -45 34 -7 10 -41 27 -75 37 -35 11
-63 23 -63 27 0 5 -16 8 -35 8 -19 0 -35 5 -35 10 0 6 -13 10 -30 10 -16 0
-30 5 -30 10 0 6 -68 10 -185 10 -117 0 -185 -4 -185 -10z"/>
<path d="M2800 8200 c0 -5 -25 -10 -55 -10 -30 0 -55 -4 -55 -10 0 -5 -11 -10
-25 -10 -14 0 -25 -4 -25 -10 0 -5 -10 -10 -21 -10 -31 0 -123 -33 -132 -47
-4 -7 -13 -13 -20 -13 -7 0 -24 -10 -39 -23 -14 -12 -36 -29 -49 -37 -45 -30
-176 -167 -190 -198 -7 -18 -17 -32 -21 -32 -5 0 -8 -7 -8 -15 0 -8 -4 -15
-10 -15 -5 0 -10 -9 -10 -20 0 -11 -4 -20 -10 -20 -5 0 -10 -9 -10 -20 0 -11
-4 -20 -10 -20 -5 0 -10 -9 -10 -20 0 -11 -4 -20 -10 -20 -5 0 -10 -13 -10
-30 0 -16 -4 -30 -9 -30 -9 0 -22 -61 -42 -187 -8 -52 -8 -97 0 -165 13 -107
31 -188 43 -188 4 0 8 -13 8 -30 0 -16 5 -30 10 -30 6 0 10 -9 10 -20 0 -11 5
-20 10 -20 6 0 10 -11 10 -25 0 -14 5 -25 10 -25 6 0 10 -7 10 -15 0 -8 5 -15
10 -15 6 0 10 -7 10 -15 0 -8 5 -15 10 -15 6 0 10 -8 10 -17 0 -30 101 -143
127 -143 7 0 13 -6 13 -13 0 -7 10 -19 21 -27 12 -8 27 -19 33 -25 6 -5 30
-23 54 -39 23 -16 42 -33 42 -37 0 -5 9 -9 20 -9 11 0 20 -4 20 -10 0 -5 11
-10 25 -10 14 0 25 -4 25 -10 0 -5 9 -10 20 -10 11 0 20 -3 20 -8 0 -35 436
-52 573 -22 37 8 67 18 67 22 0 5 9 8 20 8 11 0 20 5 20 10 0 6 11 10 25 10
14 0 36 9 48 20 12 11 56 45 97 75 95 69 129 98 130 108 0 5 12 21 28 36 15
15 36 42 46 61 54 99 88 155 97 158 5 2 9 19 9 38 0 19 5 34 10 34 6 0 10 16
10 35 0 19 5 35 10 35 6 0 10 23 10 50 0 28 5 50 10 50 6 0 10 42 10 105 0 63
-4 105 -10 105 -5 0 -10 25 -10 55 0 30 -4 55 -10 55 -5 0 -10 16 -10 35 0 19
-4 35 -10 35 -5 0 -10 14 -10 30 0 17 -5 30 -11 30 -5 0 -23 28 -39 63 -16 34
-38 76 -49 92 -12 17 -21 38 -21 48 0 9 -4 17 -9 17 -5 0 -41 31 -81 69 -39
38 -99 88 -133 110 -34 22 -66 44 -72 48 -15 12 -76 35 -107 40 -16 3 -28 9
-28 14 0 5 -16 9 -35 9 -19 0 -35 5 -35 10 0 6 -22 10 -50 10 -27 0 -50 5 -50
10 0 6 -47 10 -120 10 -73 0 -120 -4 -120 -10z"/>
<path d="M6350 6697 c-6 -6 -24 -33 -41 -59 -17 -27 -35 -48 -40 -48 -5 0 -9
-7 -9 -15 0 -8 -4 -15 -10 -15 -5 0 -10 -6 -10 -13 0 -7 -9 -19 -20 -27 -11
-8 -20 -21 -20 -29 0 -14 -37 -51 -52 -51 -4 0 -8 -6 -8 -13 0 -7 -13 -28 -29
-47 -15 -19 -32 -46 -36 -59 -8 -27 -15 -36 -62 -86 -18 -19 -33 -39 -33 -45
0 -5 -4 -10 -10 -10 -5 0 -10 -6 -10 -13 0 -7 -9 -19 -20 -27 -11 -8 -20 -18
-20 -23 0 -5 -6 -14 -12 -22 -27 -28 -48 -55 -62 -82 -8 -15 -26 -40 -40 -55
-14 -15 -26 -32 -26 -38 0 -5 -4 -10 -10 -10 -5 0 -10 -6 -10 -13 0 -7 -9 -19
-20 -27 -11 -8 -20 -20 -20 -27 0 -7 -4 -13 -10 -13 -5 0 -10 -8 -10 -18 0
-10 -9 -24 -20 -32 -27 -19 -25 -25 10 -40 26 -11 41 -21 87 -60 17 -14 38 -3
53 28 6 15 18 34 26 42 7 8 25 27 39 42 14 15 25 32 25 38 0 5 5 10 10 10 6 0
10 7 10 15 0 8 5 15 10 15 6 0 10 6 10 13 0 7 9 19 20 27 11 8 20 21 20 29 0
14 37 51 50 51 4 0 17 21 28 48 12 26 35 62 51 80 17 18 31 37 31 43 0 5 5 9
10 9 6 0 10 6 10 13 0 7 9 19 20 27 11 8 20 18 20 23 0 5 14 22 30 37 17 15
30 31 30 34 0 3 16 30 35 60 19 30 35 58 35 62 0 3 20 26 45 50 25 23 45 50
45 58 0 9 5 16 10 16 6 0 10 6 10 13 0 7 9 19 19 26 19 14 18 15 -12 43 -38
33 -44 38 -79 61 -22 13 -29 14 -38 4z"/>
<path d="M3615 6383 c-16 -9 -35 -22 -42 -29 -7 -7 -22 -16 -33 -19 -26 -8
-26 -37 0 -55 11 -8 20 -21 20 -30 0 -9 9 -22 20 -30 11 -8 20 -19 20 -24 0
-5 8 -16 18 -25 9 -9 28 -38 42 -66 25 -49 40 -70 93 -125 15 -16 27 -36 27
-45 0 -8 5 -15 10 -15 6 0 10 -7 10 -15 0 -8 5 -15 10 -15 6 0 10 -7 10 -15 0
-8 5 -15 10 -15 6 0 10 -7 10 -15 0 -8 5 -15 10 -15 6 0 10 -9 10 -20 0 -11 6
-20 14 -20 8 0 18 -10 21 -21 7 -22 79 -133 102 -157 10 -11 19 -7 46 20 19
18 46 42 61 52 32 23 33 38 1 70 -14 14 -25 32 -25 41 0 8 -4 15 -10 15 -5 0
-10 7 -10 15 0 8 -4 15 -10 15 -5 0 -10 7 -10 15 0 8 -4 15 -10 15 -5 0 -10 7
-10 15 0 8 -4 15 -10 15 -5 0 -10 5 -10 10 0 6 -8 18 -17 28 -36 38 -53 63
-78 112 -14 27 -30 50 -35 50 -6 0 -10 7 -10 15 0 8 -4 15 -10 15 -5 0 -10 7
-10 15 0 8 -4 15 -10 15 -5 0 -10 8 -10 18 0 10 -9 24 -20 32 -11 8 -20 19
-20 24 0 5 -8 16 -18 25 -10 9 -35 44 -57 78 -22 35 -44 63 -50 63 -5 -1 -23
-8 -40 -17z"/>
<path d="M4695 5732 c-49 -8 -91 -19 -93 -24 -2 -4 -10 -8 -17 -8 -25 0 -202
-79 -217 -97 -6 -7 -18 -13 -27 -13 -9 0 -23 -9 -31 -20 -8 -11 -21 -20 -29
-20 -7 0 -21 -8 -30 -17 -19 -21 -49 -41 -73 -49 -10 -4 -18 -10 -18 -15 0 -5
-22 -31 -50 -59 -27 -28 -50 -55 -50 -60 0 -5 -21 -32 -48 -59 -44 -44 -94
-130 -123 -208 -6 -18 -15 -33 -20 -33 -5 0 -9 -11 -9 -25 0 -14 -4 -25 -10
-25 -5 0 -10 -13 -10 -30 0 -16 -4 -30 -10 -30 -5 0 -10 -16 -10 -35 0 -19 -4
-35 -10 -35 -5 0 -10 -22 -10 -50 0 -27 -4 -50 -10 -50 -6 0 -10 -65 -10 -175
0 -110 4 -175 10 -175 6 0 10 -25 10 -55 0 -30 5 -55 10 -55 6 0 10 -13 10
-30 0 -16 5 -30 10 -30 6 0 10 -13 10 -30 0 -16 5 -30 10 -30 6 0 10 -13 10
-29 0 -16 5 -31 10 -33 6 -2 16 -19 23 -39 16 -45 88 -169 99 -169 4 0 8 -5 8
-11 0 -6 14 -24 30 -39 17 -15 30 -31 30 -34 0 -17 205 -206 223 -206 7 0 19
-9 27 -20 8 -11 24 -20 36 -20 12 0 27 -7 34 -15 7 -8 21 -15 31 -15 11 0 19
-4 19 -8 0 -5 19 -15 43 -22 23 -8 58 -21 77 -30 19 -9 62 -22 95 -30 33 -7
76 -16 95 -21 61 -15 347 -11 425 7 39 8 86 19 105 23 31 7 61 18 140 55 14 6
27 13 30 16 7 7 70 31 98 37 12 3 22 9 22 14 0 5 4 9 10 9 5 0 29 18 51 40 23
22 45 40 50 40 8 0 153 142 174 171 6 8 21 31 34 52 12 20 27 37 32 37 5 0 9
7 9 15 0 8 5 15 10 15 6 0 10 9 10 20 0 11 5 20 10 20 6 0 10 7 10 15 0 8 5
15 10 15 6 0 10 9 10 20 0 11 5 20 10 20 6 0 10 9 10 20 0 11 5 20 10 20 6 0
10 14 10 30 0 17 4 30 9 30 5 0 19 37 32 83 22 76 24 100 23 322 0 216 -2 248
-22 320 -12 44 -27 82 -32 83 -6 2 -10 15 -10 28 0 13 -4 24 -10 24 -5 0 -10
9 -10 20 0 11 -4 20 -10 20 -5 0 -10 11 -10 25 0 14 -4 25 -10 25 -5 0 -10 7
-10 15 0 8 -4 15 -10 15 -5 0 -10 9 -10 20 0 11 -4 20 -10 20 -5 0 -10 5 -10
10 0 6 -15 25 -34 43 -18 18 -41 48 -51 67 -9 19 -39 56 -66 81 -27 26 -49 52
-49 58 0 6 -9 11 -20 11 -11 0 -20 4 -20 9 0 5 -10 13 -22 17 -13 4 -35 20
-49 35 -15 16 -32 29 -38 29 -6 0 -11 5 -11 10 0 6 -9 10 -20 10 -11 0 -20 4
-20 9 0 4 -28 21 -62 36 -35 15 -82 36 -105 46 -23 11 -49 19 -57 19 -9 0 -16
4 -16 8 0 34 -430 51 -585 24z"/>
<path d="M1570 5521 c0 -5 -21 -11 -47 -14 -62 -6 -134 -27 -151 -44 -7 -7
-20 -13 -27 -13 -32 0 -156 -82 -221 -146 -23 -23 -51 -48 -61 -55 -23 -17
-103 -131 -103 -147 0 -7 -4 -12 -10 -12 -5 0 -10 -9 -10 -20 0 -11 -4 -20
-10 -20 -5 0 -10 -9 -10 -20 0 -11 -4 -20 -10 -20 -5 0 -10 -11 -10 -25 0 -14
-4 -25 -10 -25 -5 0 -10 -13 -10 -30 0 -16 -4 -30 -8 -30 -17 0 -37 -147 -37
-265 0 -117 19 -245 36 -245 5 0 9 -13 9 -30 0 -16 5 -30 10 -30 6 0 10 -11
10 -25 0 -14 5 -25 10 -25 6 0 10 -9 10 -20 0 -11 5 -20 10 -20 6 0 10 -9 10
-20 0 -11 4 -20 8 -20 4 0 13 -15 20 -34 11 -29 28 -56 61 -91 5 -5 41 -39 81
-75 39 -36 83 -75 96 -87 14 -13 29 -23 34 -23 6 0 10 -4 10 -10 0 -5 7 -10
15 -10 8 0 15 -4 15 -10 0 -5 9 -10 20 -10 11 0 20 -4 20 -8 0 -8 56 -26 123
-39 15 -3 27 -9 27 -13 0 -24 329 -39 433 -19 37 7 67 16 67 21 0 4 10 8 21 8
26 0 123 32 127 43 2 4 12 7 23 7 10 0 19 5 19 10 0 6 7 10 15 10 8 0 15 5 15
10 0 6 6 10 14 10 8 0 27 12 43 28 16 15 48 43 71 62 23 19 42 41 42 48 0 6 4
12 9 12 28 0 142 166 166 240 4 11 11 20 16 20 5 0 9 11 9 25 0 14 5 25 10 25
6 0 10 16 10 35 0 19 5 35 10 35 6 0 10 23 10 50 0 28 5 50 10 50 6 0 10 48
10 125 0 77 -4 125 -10 125 -5 0 -10 23 -10 50 0 28 -4 50 -10 50 -5 0 -10 16
-10 35 0 19 -4 35 -10 35 -5 0 -10 14 -10 30 0 17 -4 30 -10 30 -5 0 -21 23
-35 50 -41 80 -96 163 -127 190 -16 14 -48 43 -71 65 -52 50 -131 107 -189
136 -23 12 -45 24 -48 28 -8 9 -141 41 -172 41 -16 0 -28 5 -28 10 0 6 -58 10
-155 10 -86 0 -155 -4 -155 -9z"/>
<path d="M8225 5483 c-33 -2 -62 -8 -65 -12 -3 -4 -27 -13 -55 -20 -64 -16
-234 -97 -256 -122 -9 -10 -22 -19 -29 -19 -7 0 -26 -16 -43 -35 -16 -19 -36
-35 -43 -35 -8 0 -14 -5 -14 -11 0 -6 -18 -28 -40 -49 -22 -21 -40 -43 -40
-49 0 -6 -4 -11 -10 -11 -5 0 -10 -7 -10 -15 0 -8 -4 -15 -10 -15 -5 0 -10 -8
-10 -18 0 -10 -9 -24 -20 -32 -11 -8 -20 -20 -20 -27 0 -7 -4 -13 -10 -13 -5
0 -10 -9 -10 -20 0 -11 -11 -52 -24 -92 -13 -40 -27 -90 -30 -110 -4 -21 -11
-38 -16 -38 -6 0 -10 -60 -10 -145 0 -80 4 -145 9 -145 5 0 14 -24 19 -52 19
-98 84 -268 104 -268 4 0 8 -8 8 -18 0 -10 9 -24 20 -32 11 -8 20 -19 20 -25
0 -6 9 -17 20 -25 11 -8 20 -19 20 -24 0 -9 40 -48 78 -73 12 -8 22 -20 22
-25 0 -13 26 -38 41 -38 6 0 19 -8 28 -17 15 -17 56 -36 106 -50 11 -4 22 -9
25 -13 28 -36 255 -90 376 -90 109 1 356 58 384 89 11 13 69 41 84 41 9 0 16
5 16 10 0 6 8 10 18 10 10 0 24 9 32 20 8 11 20 20 27 20 7 0 13 3 13 8 0 4
25 33 55 65 30 33 55 62 55 66 0 3 9 13 20 21 11 8 20 19 20 25 0 6 9 17 20
25 11 8 20 22 20 32 0 10 5 18 10 18 6 0 10 9 10 20 0 11 3 20 8 20 7 0 12 11
48 95 56 131 59 436 6 600 -17 52 -46 115 -54 115 -5 0 -8 7 -8 15 0 8 -4 15
-10 15 -5 0 -10 8 -10 18 0 10 -9 24 -20 32 -11 8 -20 21 -20 30 0 9 -9 22
-20 30 -11 8 -20 18 -20 23 0 5 -11 18 -25 29 -14 11 -25 24 -25 30 0 12 -41
47 -55 48 -6 0 -17 9 -25 20 -8 11 -21 20 -29 20 -7 0 -21 8 -30 18 -23 27
-166 98 -233 117 -31 9 -58 20 -60 25 -4 9 -247 19 -333 13z"/>
<path d="M2760 4595 l0 -75 400 0 400 0 0 75 0 75 -400 0 -400 0 0 -75z"/>
<path d="M6320 4595 l0 -75 310 0 310 0 0 75 0 75 -310 0 -310 0 0 -75z"/>
<path d="M3895 3630 c-4 -11 -17 -32 -31 -45 -13 -13 -24 -29 -24 -35 0 -5 -4
-10 -10 -10 -5 0 -10 -7 -10 -15 0 -8 -4 -15 -10 -15 -5 0 -10 -7 -10 -15 0
-8 -4 -15 -10 -15 -5 0 -10 -7 -10 -15 0 -8 -4 -15 -10 -15 -5 0 -10 -9 -10
-20 0 -11 -7 -20 -15 -20 -8 0 -15 -4 -15 -8 0 -5 -8 -18 -17 -30 -10 -11 -25
-29 -34 -40 -10 -11 -20 -29 -24 -41 -3 -12 -17 -33 -31 -46 -13 -13 -24 -30
-24 -37 0 -8 -9 -20 -20 -28 -11 -8 -20 -21 -20 -30 0 -9 -9 -22 -20 -30 -11
-8 -20 -20 -20 -26 0 -7 -3 -14 -7 -16 -5 -1 -21 -18 -36 -37 l-28 -34 22 -23
c12 -13 28 -24 36 -24 7 0 13 -5 13 -11 0 -16 26 -39 44 -39 9 0 16 -4 16 -10
0 -5 5 -10 10 -10 6 0 10 9 10 20 0 11 5 20 10 20 6 0 10 5 10 10 0 6 5 16 10
23 6 7 28 39 49 72 21 33 53 75 70 92 17 18 31 40 31 48 0 8 5 15 10 15 6 0
10 6 10 13 0 7 9 19 20 27 11 8 20 20 20 27 0 7 5 13 10 13 6 0 10 7 10 15 0
8 4 15 9 15 5 0 12 8 15 18 4 10 14 27 24 38 10 10 30 40 45 67 15 26 32 47
37 47 6 0 10 7 10 15 0 8 5 15 10 15 6 0 10 7 10 15 0 8 5 15 10 15 19 0 10
39 -10 45 -12 4 -36 22 -55 41 -39 39 -61 43 -70 14z"/>
<path d="M5620 3400 c0 -5 -7 -10 -15 -10 -8 0 -15 -4 -15 -10 0 -5 -7 -10
-15 -10 -8 0 -15 -4 -15 -10 0 -5 -9 -10 -20 -10 -11 0 -20 -7 -20 -15 0 -8 5
-15 10 -15 6 0 10 -7 10 -14 0 -8 11 -27 25 -42 13 -14 27 -42 31 -60 3 -19
10 -34 14 -34 5 0 12 -9 15 -20 4 -11 17 -32 31 -45 13 -13 24 -29 24 -35 0
-5 5 -10 10 -10 6 0 10 -9 10 -20 0 -11 5 -20 10 -20 6 0 10 -7 10 -15 0 -8 5
-15 10 -15 6 0 10 -7 10 -15 0 -8 5 -15 10 -15 6 0 10 -7 10 -15 0 -8 5 -15
10 -15 6 0 10 -7 10 -16 0 -8 13 -29 30 -47 16 -18 30 -37 30 -44 0 -7 14 -34
30 -60 17 -26 30 -52 30 -58 0 -6 9 -17 20 -25 11 -8 20 -21 20 -30 0 -9 9
-22 20 -30 11 -8 20 -20 20 -27 0 -7 5 -13 10 -13 6 0 10 -9 10 -20 0 -11 5
-20 10 -20 6 0 10 -4 10 -9 0 -6 11 -22 24 -36 13 -14 26 -39 30 -55 5 -28 36
-44 36 -20 0 6 7 10 15 10 8 0 15 5 15 10 0 6 9 10 20 10 11 0 20 6 20 14 0 8
9 18 20 21 21 7 29 55 10 55 -5 0 -10 7 -10 15 0 8 -4 15 -10 15 -5 0 -10 7
-10 15 0 9 -10 26 -22 39 -31 32 -42 49 -85 136 -20 41 -45 82 -55 91 -10 9
-18 21 -18 28 0 6 -4 11 -10 11 -5 0 -10 9 -10 20 0 11 -4 20 -10 20 -5 0 -10
7 -10 15 0 8 -4 15 -10 15 -5 0 -10 7 -10 15 0 8 -4 15 -10 15 -5 0 -10 7 -10
15 0 8 -4 15 -9 15 -5 0 -14 13 -21 29 -6 16 -20 37 -31 47 -10 9 -19 25 -19
36 0 10 -4 18 -10 18 -5 0 -10 8 -10 18 0 10 -9 28 -20 40 -11 12 -20 26 -20
32 0 5 -4 10 -10 10 -5 0 -10 7 -10 15 0 8 -4 15 -10 15 -5 0 -10 9 -10 20 0
11 -4 20 -10 20 -5 0 -10 6 -10 13 0 7 -9 19 -20 27 -11 8 -20 22 -20 32 0 13
-8 18 -30 18 -16 0 -30 -4 -30 -10z"/>
<path d="M2590 2968 c-41 -10 -76 -24 -78 -29 -2 -5 -15 -9 -28 -9 -13 0 -24
-4 -24 -10 0 -5 -9 -10 -20 -10 -11 0 -20 -4 -20 -10 0 -5 -9 -10 -20 -10 -11
0 -20 -4 -20 -10 0 -5 -9 -10 -20 -10 -11 0 -20 -4 -20 -10 0 -5 -11 -12 -25
-16 -25 -6 -155 -122 -155 -138 0 -4 -13 -21 -30 -36 -16 -15 -30 -32 -30 -37
0 -5 -9 -15 -20 -23 -11 -8 -20 -18 -20 -23 0 -5 -8 -21 -18 -35 -47 -70 -102
-235 -102 -309 0 -29 -4 -53 -10 -53 -6 0 -10 -33 -10 -80 0 -47 4 -80 10 -80
6 0 10 -25 10 -55 0 -31 10 -86 21 -123 27 -83 95 -221 120 -243 11 -9 19 -20
19 -25 0 -5 9 -16 20 -24 11 -8 20 -18 20 -23 0 -4 10 -18 23 -31 12 -13 29
-33 37 -45 8 -11 18 -21 23 -21 5 0 21 -13 37 -30 15 -16 74 -52 131 -79 57
-28 109 -55 116 -61 7 -5 26 -10 43 -10 16 0 30 -4 30 -10 0 -5 18 -10 40 -10
22 0 40 -4 40 -10 0 -6 57 -10 150 -10 93 0 150 4 150 10 0 6 23 10 50 10 28
0 50 5 50 10 0 6 14 10 30 10 17 0 30 3 30 8 0 7 67 40 168 82 28 13 52 29 52
36 0 8 7 14 16 14 17 0 54 36 54 52 0 4 6 8 13 8 7 0 19 10 27 22 8 13 32 40
53 60 20 21 37 41 37 46 0 4 9 14 20 22 11 8 20 22 20 32 0 10 5 18 10 18 6 0
10 9 10 20 0 11 5 20 10 20 6 0 10 9 10 20 0 11 4 20 8 20 5 0 13 19 19 43 6
23 18 68 27 99 29 106 40 231 27 316 -15 95 -32 174 -42 187 -5 6 -11 30 -15
53 -4 23 -10 42 -15 42 -5 0 -9 9 -9 20 0 11 -4 20 -10 20 -5 0 -10 9 -10 20
0 11 -4 20 -10 20 -5 0 -10 8 -10 18 0 10 -9 24 -20 32 -11 8 -20 18 -20 23 0
12 -26 37 -39 37 -5 0 -12 9 -16 19 -3 11 -33 44 -65 75 -33 30 -60 60 -60 66
0 5 -9 10 -19 10 -11 0 -26 7 -35 15 -8 8 -24 15 -35 15 -12 0 -21 5 -21 10 0
6 -9 10 -20 10 -11 0 -20 5 -20 10 0 6 -9 10 -20 10 -11 0 -20 5 -20 10 0 6
-11 10 -24 10 -13 0 -26 5 -28 11 -2 6 -39 19 -83 29 -113 27 -340 26 -445 -2z"/>
<path d="M6560 2401 c0 -5 -24 -11 -52 -14 -75 -7 -162 -29 -170 -43 -4 -6
-32 -22 -63 -34 -30 -12 -55 -26 -55 -30 0 -5 -9 -12 -20 -15 -11 -4 -32 -17
-45 -31 -13 -13 -27 -24 -31 -24 -8 0 -44 -41 -44 -50 0 -4 -13 -13 -30 -20
-16 -7 -30 -18 -30 -24 0 -6 -9 -18 -20 -26 -11 -8 -20 -20 -20 -27 0 -7 -4
-13 -10 -13 -5 0 -10 -7 -10 -15 0 -8 -4 -15 -10 -15 -5 0 -10 -8 -10 -18 0
-10 -9 -24 -20 -32 -11 -8 -20 -22 -20 -32 0 -10 -4 -18 -8 -18 -26 0 -82
-266 -81 -390 0 -84 32 -285 52 -330 9 -19 22 -50 29 -67 7 -18 16 -33 20 -33
5 0 8 -7 8 -15 0 -8 5 -15 10 -15 6 0 10 -7 10 -15 0 -8 5 -15 10 -15 6 0 10
-7 10 -15 0 -9 24 -40 53 -70 28 -30 63 -68 76 -85 12 -17 42 -40 65 -52 22
-11 48 -29 57 -39 9 -11 24 -19 33 -19 9 0 16 -4 16 -10 0 -5 9 -10 20 -10 11
0 20 -4 20 -10 0 -5 7 -10 15 -10 8 0 15 -4 15 -10 0 -5 11 -10 25 -10 14 0
25 -4 25 -10 0 -5 14 -10 30 -10 17 0 30 -4 30 -8 0 -15 145 -34 266 -34 120
0 234 17 234 34 0 4 16 8 35 8 19 0 35 5 35 10 0 6 11 10 25 10 14 0 25 5 25
10 0 6 7 10 15 10 8 0 15 5 15 10 0 6 11 10 25 10 14 0 25 5 25 10 0 6 7 10
15 10 9 0 27 11 41 25 14 14 31 25 38 25 8 0 33 21 57 46 24 26 63 66 87 90
23 24 42 50 42 59 0 8 5 15 10 15 6 0 10 7 10 15 0 8 5 15 10 15 6 0 10 6 10
14 0 8 6 16 13 19 28 11 87 197 103 325 4 28 10 52 15 52 5 0 9 32 9 70 0 40
-4 70 -10 70 -5 0 -10 9 -10 21 0 86 -85 359 -111 359 -5 0 -9 9 -9 20 0 11
-4 20 -10 20 -5 0 -10 7 -10 15 0 8 -4 15 -10 15 -5 0 -10 6 -10 13 0 7 -9 19
-20 27 -11 8 -20 20 -20 27 0 6 -9 15 -20 18 -11 4 -43 28 -70 55 -27 27 -59
51 -70 55 -11 3 -20 10 -20 14 0 5 -13 14 -30 21 -16 7 -30 16 -30 21 0 5 -6
9 -13 9 -19 0 -77 30 -77 39 0 10 -88 31 -157 38 -29 3 -53 9 -53 14 0 5 -63
9 -140 9 -77 0 -140 -4 -140 -9z"/>
</g>
</svg>
